#N canvas 150 194 606 528 12;
#X msg 105 238 line;
#X msg 105 443 read data/\$1.json;
#X obj 105 421 symbol;
#X msg 153 258 moon;
#X msg 201 278 circles;
#X msg 250 308 blobs;
#X msg 298 338 gaussian4;
#X obj 105 104 vradio 15 1 0 6 empty empty empty 0 -8 0 10 #fcfcfc #000000 #000000 0;
#X text 121 103 line, f 8;
#X text 121 118 moon, f 8;
#X text 121 133 circles, f 8;
#X text 121 148 blobs, f 8;
#X text 121 163 gaussian;
#X obj 105 467 outlet;
#X obj 105 207 sel 0 1 2 3 4 5, f 35;
#X msg 328 367 rays;
#X text 121 178 rays;
#X connect 0 0 2 0;
#X connect 1 0 13 0;
#X connect 2 0 1 0;
#X connect 3 0 2 0;
#X connect 4 0 2 0;
#X connect 5 0 2 0;
#X connect 6 0 2 0;
#X connect 7 0 14 0;
#X connect 14 0 0 0;
#X connect 14 1 3 0;
#X connect 14 2 4 0;
#X connect 14 3 5 0;
#X connect 14 4 6 0;
#X connect 14 5 15 0;
#X connect 15 0 2 0;
#X coords 0 -1 1 1 85 98 2 100 100;
